<?xml version="1.0" encoding="UTF-8" standalone="no"?>
<svg
   xmlns:dc="http://purl.org/dc/elements/1.1/"
   xmlns:cc="http://creativecommons.org/ns#"
   xmlns:rdf="http://www.w3.org/1999/02/22-rdf-syntax-ns#"
   xmlns:svg="http://www.w3.org/2000/svg"
   xmlns="http://www.w3.org/2000/svg"
   xmlns:sodipodi="http://sodipodi.sourceforge.net/DTD/sodipodi-0.dtd"
   xmlns:inkscape="http://www.inkscape.org/namespaces/inkscape"
   version="1.0"
   width="6283.1133"
   height="1753.5013"
   viewBox="0 0 5026.4906 1402.8011"
   preserveAspectRatio="xMidYMid meet"
   id="svg2"
   inkscape:version="0.92.3 (2405546, 2018-03-11)"
   sodipodi:docname="robo4youlogo_black.svg">
  <defs
     id="defs26" />
  <sodipodi:namedview
     pagecolor="#6e6e6e"
     bordercolor="#666666"
     borderopacity="1"
     objecttolerance="10"
     gridtolerance="10"
     guidetolerance="10"
     inkscape:pageopacity="0"
     inkscape:pageshadow="2"
     inkscape:window-width="1920"
     inkscape:window-height="1024"
     id="namedview24"
     showgrid="false"
     fit-margin-top="0"
     fit-margin-left="0"
     fit-margin-right="0"
     fit-margin-bottom="0"
     inkscape:zoom="0.125"
     inkscape:cx="4613.2827"
     inkscape:cy="874.47091"
     inkscape:window-x="1600"
     inkscape:window-y="28"
     inkscape:window-maximized="1"
     inkscape:current-layer="svg2" />
  <metadata
     id="metadata4">
Created by potrace 1.13, written by Peter Selinger 2001-2015
<rdf:RDF>
  <cc:Work
     rdf:about="">
    <dc:format>image/svg+xml</dc:format>
    <dc:type
       rdf:resource="http://purl.org/dc/dcmitype/StillImage" />
    <dc:title></dc:title>
  </cc:Work>
</rdf:RDF>
</metadata>
  <g
     transform="matrix(0.1,0,0,-0.1,26.490672,1273)"
     id="g6"
     style="fill:#000000;stroke:none">
    <path
       d="m 26573,9511 -2183,-3218 0,-732 0,-731 2125,0 2125,0 0,-1035 0,-1035 1030,0 1030,0 0,1035 0,1035 600,0 600,0 0,815 0,815 -600,0 -600,0 0,3135 0,3135 -972,-1 -973,0 -2182,-3218 z m 2153,762 c -19,-152 -58,-992 -76,-1648 -5,-187 -10,-751 -10,-1252 l 0,-913 -1196,0 c -953,0 -1195,3 -1191,13 2,6 414,631 914,1387 500,756 947,1434 993,1505 133,208 292,491 411,732 100,203 112,223 135,223 25,0 26,-2 20,-47 z"
       id="path8"
       inkscape:connector-curvature="0"
       style="fill:#000000" />
    <path
       d="m 10720,7440 0,-4560 179,0 179,0 6,27 c 11,55 156,911 156,922 0,6 13,11 29,11 24,0 35,-11 76,-73 114,-172 314,-385 470,-504 348,-263 754,-423 1219,-480 178,-21 554,-21 736,1 610,74 1072,289 1460,676 467,466 747,1134 834,1990 43,420 35,1027 -19,1442 -166,1277 -761,2085 -1736,2361 -145,41 -285,70 -459,94 -180,25 -694,24 -870,0 -456,-65 -823,-213 -1130,-457 -165,-132 -384,-374 -515,-572 -25,-39 -45,-58 -58,-58 -20,0 -20,4 -13,223 3,122 12,328 18,457 8,156 12,710 13,1645 l 0,1410 -287,3 -288,2 0,-4560 z m 2968,1389 c 1111,-120 1697,-906 1782,-2389 37,-650 -28,-1275 -180,-1745 -241,-740 -680,-1186 -1329,-1350 -188,-47 -307,-59 -581,-60 -272,0 -384,10 -588,51 -231,47 -454,135 -629,249 -490,319 -739,839 -838,1750 -22,201 -32,931 -16,1186 46,726 184,1245 429,1614 89,134 255,300 388,388 232,154 542,261 854,296 52,6 109,13 125,15 73,8 495,5 583,-5 z"
       id="path10"
       inkscape:connector-curvature="0"
       style="fill:#000000" />
    <path
       d="m 6000,9478 0,-233 -98,-19 c -347,-66 -734,-225 -1071,-439 l -94,-59 -168,168 -169,169 -400,-400 -400,-400 165,-165 c 91,-91 165,-168 165,-171 0,-3 -26,-46 -58,-95 -212,-326 -364,-684 -443,-1049 -12,-55 -23,-106 -25,-112 -3,-10 -59,-13 -239,-13 l -235,0 0,-565 0,-565 234,0 234,0 7,-42 c 13,-78 53,-242 89,-360 83,-272 206,-535 374,-797 l 54,-84 -162,-162 -161,-161 404,-397 403,-396 155,155 c 84,85 157,154 161,154 3,0 41,-23 83,-51 319,-211 744,-387 1097,-455 l 98,-19 0,-227 0,-228 565,0 565,0 0,225 c 0,172 3,227 13,229 6,3 68,16 137,31 344,73 780,260 1070,459 l 65,44 155,-154 155,-154 400,400 400,400 -153,153 c -83,84 -152,156 -152,160 0,4 25,45 55,92 207,321 373,729 441,1087 l 19,98 223,0 222,0 0,565 0,565 -224,0 -224,0 -17,78 c -83,388 -229,744 -443,1080 l -65,104 161,161 c 89,89 162,165 162,168 0,4 -180,183 -401,400 l -400,393 -162,-162 -162,-162 -55,37 c -111,76 -302,182 -443,246 -175,81 -457,176 -627,212 -69,15 -131,28 -137,31 -10,2 -13,58 -13,234 l 0,230 -565,0 -565,0 0,-232 z m 864,-783 c 788,-92 1472,-515 1908,-1180 400,-610 526,-1361 348,-2075 -225,-900 -918,-1623 -1808,-1884 -275,-82 -506,-111 -812,-103 -239,6 -357,21 -568,73 -472,115 -918,373 -1260,728 -410,427 -651,941 -723,1541 -15,129 -15,441 0,570 95,796 503,1465 1163,1908 148,99 398,226 565,286 187,67 459,127 658,144 114,10 413,6 529,-8 z"
       id="path12"
       inkscape:connector-curvature="0"
       style="fill:#000000" />
    <path
       d="m 19700,9478 0,-233 -98,-19 c -347,-66 -734,-225 -1071,-439 l -94,-59 -168,168 -169,169 -400,-400 -400,-400 165,-165 c 91,-91 165,-168 165,-171 0,-3 -26,-46 -58,-95 -212,-326 -364,-684 -443,-1049 -12,-55 -23,-106 -25,-112 -3,-10 -59,-13 -239,-13 l -235,0 0,-565 0,-565 234,0 234,0 7,-42 c 13,-78 53,-242 89,-360 83,-272 206,-535 374,-797 l 54,-84 -162,-162 -161,-161 404,-397 403,-396 155,155 c 84,85 157,154 161,154 3,0 41,-23 83,-51 319,-211 744,-387 1097,-455 l 98,-19 0,-227 0,-228 565,0 565,0 0,225 c 0,172 3,227 13,229 6,3 68,16 137,31 344,73 780,260 1070,459 l 65,44 155,-154 155,-154 400,400 400,400 -153,153 c -83,84 -152,156 -152,160 0,4 25,45 55,92 207,321 373,729 441,1087 l 19,98 223,0 222,0 0,565 0,565 -224,0 -224,0 -17,78 c -83,388 -229,744 -443,1080 l -65,104 161,161 c 89,89 162,165 162,168 0,4 -180,183 -401,400 l -400,393 -162,-162 -162,-162 -55,37 c -111,76 -302,182 -443,246 -175,81 -457,176 -627,212 -69,15 -131,28 -137,31 -10,2 -13,58 -13,234 l 0,230 -565,0 -565,0 0,-232 z m 864,-783 c 788,-92 1472,-515 1908,-1180 660,-1005 544,-2347 -278,-3227 -326,-348 -732,-600 -1182,-732 -275,-82 -506,-111 -812,-103 -239,6 -357,21 -568,73 -190,46 -334,99 -528,194 -746,366 -1284,1078 -1428,1890 -53,303 -53,637 0,940 144,812 682,1524 1428,1890 89,43 212,97 273,119 187,67 459,127 658,144 114,10 413,6 529,-8 z"
       id="path14"
       inkscape:connector-curvature="0"
       style="fill:#000000" />
    <path
       d="m 40120,9480 c 0,-176 -3,-232 -12,-234 -7,-3 -69,-16 -138,-31 -337,-72 -773,-257 -1053,-447 l -59,-40 -169,168 -169,169 -402,-403 -403,-402 166,-167 167,-168 -64,-97 c -210,-322 -365,-698 -449,-1090 l -17,-78 -234,0 -234,0 0,-565 0,-565 233,0 232,0 19,-98 c 68,-358 234,-766 441,-1087 30,-47 55,-88 55,-92 0,-4 -71,-79 -157,-165 l -158,-158 400,-400 400,-400 158,158 157,157 28,-16 c 15,-9 74,-46 132,-83 278,-177 680,-339 1015,-409 l 110,-23 3,-227 2,-227 565,0 565,0 0,228 0,227 98,19 c 353,68 778,244 1097,455 42,28 79,51 83,51 4,0 75,-69 159,-152 l 153,-153 402,403 403,402 -156,157 -157,158 39,60 c 168,257 302,539 385,813 36,118 76,282 89,360 l 7,42 224,0 224,0 0,565 0,565 -225,0 c -172,0 -226,3 -229,13 -2,6 -13,57 -25,112 -80,367 -245,756 -454,1065 l -44,65 164,165 163,165 -400,400 -400,400 -163,-163 -164,-163 -77,51 c -320,212 -745,388 -1098,456 l -98,19 0,233 0,232 -565,0 -565,0 0,-230 z m 950,-795 c 149,-23 371,-79 503,-126 167,-60 417,-187 565,-286 548,-368 927,-898 1092,-1528 95,-362 110,-759 44,-1135 -144,-812 -682,-1524 -1428,-1890 -193,-94 -336,-147 -528,-194 -208,-52 -327,-67 -568,-73 -306,-8 -537,21 -812,103 -963,283 -1690,1105 -1852,2094 -132,806 116,1629 670,2222 432,462 984,742 1624,824 141,18 546,12 690,-11 z"
       id="path16"
       inkscape:connector-curvature="0"
       style="fill:#000000" />
    <path
       d="m 2290,9254 c -258,-30 -444,-75 -620,-149 -389,-165 -721,-496 -1034,-1032 -56,-98 -82,-109 -90,-40 -3,23 -15,238 -26,477 -11,239 -23,479 -27,533 l -6,97 -243,0 -244,0 0,-3185 0,-3185 290,0 289,0 4,1938 c 3,2123 -1,1976 62,2287 100,495 325,935 640,1250 266,266 578,421 935,465 240,29 650,0 958,-68 45,-11 82,-18 82,-17 0,0 25,124 55,275 30,150 53,275 51,277 -7,7 -175,33 -351,54 -161,19 -629,34 -725,23 z"
       id="path18"
       inkscape:connector-curvature="0"
       style="fill:#000000" />
    <path
       d="m 31480,9213 c 10,-27 559,-1460 1219,-3186 l 1201,-3138 -166,-442 c -253,-672 -330,-861 -460,-1117 -231,-458 -485,-693 -828,-766 -196,-42 -587.537,19.22482 -874.037,17.69357 C 31406.775,202.06857 31447.201,172.87903 31496,355 c 51.5,192.19969 -107.09,245.01891 -4,185.5 l -392.313,-378 256.563,-106.4375 C 31614.75,62.8125 31980,16 32230,15 c 239,0 326,9 489,51 326,85 610,288 827,591 130,181 285,493 459,923 46,113 500,1287 1010,2610 510,1323 1158,3004 1440,3735 l 513,1330 -295,3 c -163,1 -298,1 -300,-1 -3,-4 -1217,-3188 -1363,-3577 -221,-591 -541,-1482 -696,-1940 -73,-217 -96,-275 -110,-275 -13,0 -27,34 -65,155 -181,585 -402,1192 -1393,3820 l -684,1815 -300,3 -300,2 z"
       id="path20"
       inkscape:connector-curvature="0"
       sodipodi:nodetypes="cccccccscccccccsccccccscccccc"
       style="fill:#000000" />
    <path
       d="m 45030,7070 c 0,-1899 2,-2210 15,-2338 114,-1092 739,-1762 1801,-1931 192,-30 367,-41 664,-41 488,0 802,43 1120,152 817,282 1288,950 1360,1928 6,83 10,960 10,2278 l 0,2142 -285,0 -285,0 0,-2092 c 0,-1253 -4,-2158 -10,-2255 -33,-537 -159,-913 -391,-1166 -213,-233 -703,-400 -1314,-448 -540,-42 -1232,101 -1571,324 -301,199 -490,633 -534,1232 -6,90 -10,906 -10,2273 l 0,2132 -285,0 -285,0 0,-2190 z"
       id="path22"
       inkscape:connector-curvature="0"
       style="fill:#000000" />
  </g>
  <path
     style="fill:#000000;stroke:#000000;stroke-width:53.0753479;stroke-linecap:butt;stroke-linejoin:miter;stroke-miterlimit:4;stroke-opacity:1;stroke-dasharray:none"
     d="m 26.537615,1241.2908 c 3126.002685,0 3157.472485,0 3157.472485,0"
     id="path3003"
     inkscape:connector-curvature="0" />
  <flowRoot
     xml:space="preserve"
     id="flowRoot3773"
     style="font-style:normal;font-weight:normal;line-height:0.01%;font-family:sans-serif;-inkscape-font-specification:Sans;letter-spacing:0px;word-spacing:0px;fill:#000000;fill-opacity:1;stroke:none"
     transform="matrix(0.8,0,0,0.8,26.490672,0)"><flowRegion
       id="flowRegion3775"
       style="font-family:sans-serif"><rect
         id="rect3777"
         width="6752.8696"
         height="2121.3203"
         x="1325.8252"
         y="-972.01208"
         style="font-weight:normal;font-size:72px;font-family:sans-serif;-inkscape-font-specification:Sans" /></flowRegion><flowPara
       id="flowPara3779"
       style="font-size:72px;line-height:1.25;font-family:sans-serif"> </flowPara></flowRoot>  <g
     style="font-size:38.40000153px;font-style:normal;font-weight:normal;line-height:125%;letter-spacing:0px;word-spacing:0px;fill:#000000;fill-opacity:1;stroke:none;font-family:Sans;-inkscape-font-specification:Sans"
     id="text3007">
    <path
       d="m 1053.0676,1369.3886 0,33.4125 -10.4062,0 0,-86.9625 10.4062,0 0,9.5625 c 2.175,-3.7499 4.9125,-6.5249 8.2125,-8.325 3.3375,-1.8374 7.3125,-2.7562 11.925,-2.7562 7.65,0 13.8562,3.0375 18.6188,9.1125 4.7999,6.075 7.1999,14.0625 7.2,23.9625 -10e-5,9.9 -2.4001,17.8875 -7.2,23.9625 -4.7626,6.075 -10.9688,9.1125 -18.6188,9.1125 -4.6125,0 -8.5875,-0.9 -11.925,-2.7 -3.3,-1.8375 -6.0375,-4.6313 -8.2125,-8.3813 m 35.2125,-21.9937 c -10e-5,-7.6125 -1.5751,-13.575 -4.725,-17.8875 -3.1125,-4.35 -7.4063,-6.525 -12.8812,-6.525 -5.4751,0 -9.7876,2.175 -12.9375,6.525 -3.1126,4.3125 -4.6688,10.275 -4.6688,17.8875 0,7.6125 1.5562,13.5937 4.6688,17.9437 3.1499,4.3125 7.4624,6.4688 12.9375,6.4688 5.4749,0 9.7687,-2.1563 12.8812,-6.4688 3.1499,-4.35 4.7249,-10.3312 4.725,-17.9437"
       style="font-size:115.19999695px;fill:#000000"
       id="path3167" />
    <path
       d="m 1140.5926,1323.0949 c -5.55,0 -9.9375,2.175 -13.1625,6.525 -3.225,4.3125 -4.8375,10.2375 -4.8375,17.775 0,7.5375 1.5937,13.4812 4.7813,17.8312 3.2249,4.3125 7.6312,6.4688 13.2187,6.4688 5.5125,0 9.8812,-2.175 13.1063,-6.525 3.2249,-4.35 4.8374,-10.275 4.8375,-17.775 -10e-5,-7.4625 -1.6126,-13.3687 -4.8375,-17.7188 -3.2251,-4.3874 -7.5938,-6.5812 -13.1063,-6.5812 m 0,-8.775 c 9,0 16.0687,2.925 21.2063,8.775 5.1374,5.85 7.7061,13.95 7.7062,24.3 -10e-5,10.3125 -2.5688,18.4125 -7.7062,24.3 -5.1376,5.85 -12.2063,8.775 -21.2063,8.775 -9.0375,0 -16.125,-2.925 -21.2625,-8.775 -5.1,-5.8875 -7.65,-13.9875 -7.65,-24.3 0,-10.35 2.55,-18.45 7.65,-24.3 5.1375,-5.85 12.225,-8.775 21.2625,-8.775"
       style="font-size:115.19999695px;fill:#000000"
       id="path3169" />
    <path
       d="m 1180.5863,1315.8386 10.35,0 12.9375,49.1625 12.8813,-49.1625 12.2062,0 12.9375,49.1625 12.8813,-49.1625 10.35,0 -16.4813,63 -12.2062,0 -13.5563,-51.6375 -13.6125,51.6375 -12.2062,0 -16.4813,-63"
       style="font-size:115.19999695px;fill:#000000"
       id="path3171" />
    <path
       d="m 1334.7676,1344.7511 0,5.0625 -47.5875,0 c 0.45,7.125 2.5875,12.5625 6.4125,16.3125 3.8625,3.7125 9.225,5.5688 16.0875,5.5688 3.9749,0 7.8187,-0.4875 11.5312,-1.4625 3.75,-0.975 7.4625,-2.4375 11.1375,-4.3875 l 0,9.7875 c -3.7125,1.575 -7.5188,2.775 -11.4187,3.6 -3.9001,0.825 -7.8563,1.2375 -11.8688,1.2375 -10.05,0 -18.0187,-2.925 -23.9062,-8.775 -5.85,-5.85 -8.775,-13.7625 -8.775,-23.7375 0,-10.3125 2.775,-18.4875 8.325,-24.525 5.5875,-6.075 13.1062,-9.1125 22.5562,-9.1125 8.475,0 15.1687,2.7375 20.0813,8.2125 4.9499,5.4375 7.4249,12.8438 7.425,22.2187 m -10.35,-3.0375 c -0.075,-5.6624 -1.6688,-10.1812 -4.7813,-13.5562 -3.075,-3.375 -7.1625,-5.0625 -12.2625,-5.0625 -5.775,0 -10.4062,1.6313 -13.8937,4.8937 -3.45,3.2626 -5.4375,7.8563 -5.9625,13.7813 l 36.9,-0.056"
       style="font-size:115.19999695px;fill:#000000"
       id="path3173" />
    <path
       d="m 1388.2613,1325.5136 c -1.1625,-0.6749 -2.4375,-1.1624 -3.825,-1.4625 -1.35,-0.3374 -2.85,-0.5062 -4.5,-0.5062 -5.85,0 -10.35,1.9125 -13.5,5.7375 -3.1125,3.7875 -4.6687,9.2438 -4.6687,16.3687 l 0,33.1875 -10.4063,0 0,-63 10.4063,0 0,9.7875 c 2.175,-3.8249 5.0062,-6.6562 8.4937,-8.4937 3.4875,-1.875 7.725,-2.8125 12.7125,-2.8125 0.7125,0 1.5,0.056 2.3625,0.1687 0.8625,0.075 1.8187,0.2063 2.8688,0.3938 l 0.056,10.6312"
       style="font-size:115.19999695px;fill:#000000"
       id="path3175" />
    <path
       d="m 1450.6426,1344.7511 0,5.0625 -47.5875,0 c 0.45,7.125 2.5875,12.5625 6.4125,16.3125 3.8625,3.7125 9.225,5.5688 16.0875,5.5688 3.9749,0 7.8187,-0.4875 11.5312,-1.4625 3.75,-0.975 7.4625,-2.4375 11.1375,-4.3875 l 0,9.7875 c -3.7125,1.575 -7.5188,2.775 -11.4187,3.6 -3.9001,0.825 -7.8563,1.2375 -11.8688,1.2375 -10.05,0 -18.0187,-2.925 -23.9062,-8.775 -5.85,-5.85 -8.775,-13.7625 -8.775,-23.7375 0,-10.3125 2.775,-18.4875 8.325,-24.525 5.5875,-6.075 13.1062,-9.1125 22.5562,-9.1125 8.475,0 15.1687,2.7375 20.0813,8.2125 4.9499,5.4375 7.4249,12.8438 7.425,22.2187 m -10.35,-3.0375 c -0.075,-5.6624 -1.6688,-10.1812 -4.7813,-13.5562 -3.075,-3.375 -7.1625,-5.0625 -12.2625,-5.0625 -5.775,0 -10.4062,1.6313 -13.8937,4.8937 -3.45,3.2626 -5.4375,7.8563 -5.9625,13.7813 l 36.9,-0.056"
       style="font-size:115.19999695px;fill:#000000"
       id="path3177" />
    <path
       d="m 1509.0863,1325.4011 0,-34.0875 10.35,0 0,87.525 -10.35,0 0,-9.45 c -2.175,3.75 -4.9313,6.5438 -8.2687,8.3813 -3.3001,1.8 -7.2751,2.7 -11.925,2.7 -7.6125,0 -13.8188,-3.0375 -18.6188,-9.1125 -4.7625,-6.075 -7.1437,-14.0625 -7.1437,-23.9625 0,-9.9 2.3812,-17.8875 7.1437,-23.9625 4.8,-6.075 11.0063,-9.1125 18.6188,-9.1125 4.6499,0 8.6249,0.9188 11.925,2.7562 3.3374,1.8001 6.0937,4.5751 8.2687,8.325 m -35.2687,21.9938 c 0,7.6125 1.5562,13.5937 4.6687,17.9437 3.15,4.3125 7.4625,6.4688 12.9375,6.4688 5.475,0 9.7875,-2.1563 12.9375,-6.4688 3.15,-4.35 4.725,-10.3312 4.725,-17.9437 0,-7.6125 -1.575,-13.575 -4.725,-17.8875 -3.15,-4.35 -7.4625,-6.525 -12.9375,-6.525 -5.475,0 -9.7875,2.175 -12.9375,6.525 -3.1125,4.3125 -4.6687,10.275 -4.6687,17.8875"
       style="font-size:115.19999695px;fill:#000000"
       id="path3179" />
    <path
       d="m 1622.6551,1347.3949 c -10e-5,-7.6125 -1.5751,-13.575 -4.725,-17.8875 -3.1125,-4.35 -7.4063,-6.525 -12.8812,-6.525 -5.4751,0 -9.7876,2.175 -12.9375,6.525 -3.1126,4.3125 -4.6688,10.275 -4.6688,17.8875 0,7.6125 1.5562,13.5937 4.6688,17.9437 3.1499,4.3125 7.4624,6.4688 12.9375,6.4688 5.4749,0 9.7687,-2.1563 12.8812,-6.4688 3.1499,-4.35 4.7249,-10.3312 4.725,-17.9437 m -35.2125,-21.9938 c 2.175,-3.7499 4.9125,-6.5249 8.2125,-8.325 3.3375,-1.8374 7.3125,-2.7562 11.925,-2.7562 7.65,0 13.8562,3.0375 18.6188,9.1125 4.7999,6.075 7.1999,14.0625 7.2,23.9625 -10e-5,9.9 -2.4001,17.8875 -7.2,23.9625 -4.7626,6.075 -10.9688,9.1125 -18.6188,9.1125 -4.6125,0 -8.5875,-0.9 -11.925,-2.7 -3.3,-1.8375 -6.0375,-4.6313 -8.2125,-8.3813 l 0,9.45 -10.4062,0 0,-87.525 10.4062,0 0,34.0875"
       style="font-size:115.19999695px;fill:#000000"
       id="path3181" />
    <path
       d="m 1676.7676,1384.6886 c -2.925,7.5 -5.775,12.3938 -8.55,14.6813 -2.775,2.2874 -6.4875,3.4312 -11.1375,3.4312 l -8.2687,0 0,-8.6625 6.075,0 c 2.8499,0 5.0624,-0.675 6.6375,-2.025 1.5749,-1.35 3.3187,-4.5375 5.2312,-9.5625 l 1.8563,-4.725 -25.4813,-61.9875 10.9688,0 19.6875,49.275 19.6875,-49.275 10.9687,0 -27.675,68.85"
       style="font-size:115.19999695px;fill:#000000"
       id="path3183" />
    <path
       d="m 1755.8551,1294.8574 48.2625,0 0,9.5625 -36.9,0 0,24.75 33.3,0 0,9.5625 -33.3,0 0,40.1062 -11.3625,0 0,-83.9812"
       style="font-size:115.19999695px;fill:#000000"
       id="path3185" />
    <path
       d="m 1816.5488,1342.6699 30.3188,0 0,9.225 -30.3188,0 0,-9.225"
       style="font-size:115.19999695px;fill:#000000"
       id="path3187" />
    <path
       d="m 1851.6489,1294.8574 11.475,0 17.6625,70.9875 17.6062,-70.9875 12.7688,0 17.6625,70.9875 17.6062,-70.9875 11.5312,0 -21.0937,83.9812 -14.2875,0 -17.7187,-72.9 -17.8875,72.9 -14.2875,0 -21.0375,-83.9812"
       style="font-size:115.19999695px;fill:#000000"
       id="path3189" />
    <path
       d="m 1967.4113,1353.9761 0,-38.1375 10.35,0 0,37.7438 c 0,5.9625 1.1625,10.4437 3.4875,13.4437 2.325,2.9625 5.8125,4.4438 10.4625,4.4438 5.5875,0 9.9937,-1.7813 13.2188,-5.3438 3.2624,-3.5625 4.8937,-8.4187 4.8937,-14.5687 l 0,-35.7188 10.35,0 0,63 -10.35,0 0,-9.675 c -2.5125,3.825 -5.4375,6.675 -8.775,8.55 -3.3,1.8375 -7.1437,2.7563 -11.5312,2.7563 -7.2375,0 -12.7313,-2.25 -16.4813,-6.75 -3.75,-4.5 -5.625,-11.0813 -5.625,-19.7438 m 26.0438,-39.6562 0,0"
       style="font-size:115.19999695px;fill:#000000"
       id="path3191" />
    <path
       d="m 2030.4113,1294.8574 71.0438,0 0,9.5625 -29.8125,0 0,74.4187 -11.4188,0 0,-74.4187 -29.8125,0 0,-9.5625"
       style="font-size:115.19999695px;fill:#000000"
       id="path3193" />
    <path
       d="m 2162.8238,1297.6136 0,11.0813 c -4.3125,-2.0625 -8.3813,-3.6 -12.2062,-4.6125 -3.8251,-1.0124 -7.5188,-1.5187 -11.0813,-1.5188 -6.1875,10e-5 -10.9687,1.2001 -14.3437,3.6 -3.3375,2.4001 -5.0063,5.8126 -5.0063,10.2375 0,3.7126 1.1063,6.5251 3.3188,8.4375 2.25,1.8751 6.4874,3.3938 12.7125,4.5563 l 6.8625,1.4062 c 8.4749,1.6126 14.7187,4.4626 18.7312,8.55 4.05,4.0501 6.075,9.4876 6.075,16.3125 0,8.1375 -2.7375,14.3063 -8.2125,18.5063 -5.4375,4.2 -13.425,6.3 -23.9625,6.3 -3.975,0 -8.2125,-0.45 -12.7125,-1.35 -4.4625,-0.9 -9.0937,-2.2313 -13.8937,-3.9938 l 0,-11.7 c 4.6125,2.5875 9.1312,4.5375 13.5562,5.85 4.425,1.3125 8.775,1.9688 13.05,1.9688 6.4875,0 11.4937,-1.275 15.0188,-3.825 3.5249,-2.55 5.2874,-6.1875 5.2875,-10.9125 -1e-4,-4.125 -1.2751,-7.35 -3.825,-9.675 -2.5126,-2.325 -6.6563,-4.0687 -12.4313,-5.2313 l -6.9187,-1.35 c -8.475,-1.6874 -14.6063,-4.3312 -18.3938,-7.9312 -3.7875,-3.6 -5.6812,-8.6062 -5.6812,-15.0188 0,-7.4249 2.6062,-13.2749 7.8187,-17.55 5.25,-4.2749 12.4687,-6.4124 21.6563,-6.4125 3.9374,10e-5 7.9499,0.3564 12.0375,1.0688 4.0874,0.7126 8.2687,1.7813 12.5437,3.2062"
       style="font-size:115.19999695px;fill:#000000"
       id="path3195" />
  </g>
</svg>